<?xml version="1.0" standalone="no"?>
<!DOCTYPE svg PUBLIC "-//W3C//DTD SVG 20010904//EN"
 "http://www.w3.org/TR/2001/REC-SVG-20010904/DTD/svg10.dtd">
<svg version="1.0" xmlns="http://www.w3.org/2000/svg"
 width="815.000000pt" height="981.000000pt" viewBox="0 0 815.000000 981.000000"
 preserveAspectRatio="xMidYMid meet">

<g transform="translate(0.000000,981.000000) scale(0.100000,-0.100000)"
fill="#000000" stroke="none">
<path d="M5185 9780 c-44 -4 -118 -13 -165 -19 -47 -6 -111 -11 -142 -11 -67
0 -113 -10 -263 -56 -96 -30 -226 -63 -375 -95 -62 -13 -566 -30 -1125 -38
-445 -7 -475 -8 -565 -30 -362 -89 -540 -116 -805 -125 -172 -6 -356 -26 -386
-42 -16 -8 -34 -14 -41 -14 -8 0 -45 -15 -84 -34 -230 -110 -321 -424 -224
-776 55 -203 186 -423 293 -491 l47 -31 0 -87 c0 -174 61 -446 125 -555 47
-81 95 -207 95 -251 0 -42 -1 -43 -43 -53 -133 -35 -188 -44 -512 -82 -49 -6
-127 -20 -171 -31 -45 -10 -93 -19 -107 -19 -14 0 -38 -5 -54 -11 -15 -6 -59
-13 -96 -15 -55 -4 -85 -13 -155 -47 -171 -84 -258 -157 -327 -272 -54 -90
-77 -181 -79 -305 -1 -98 1 -108 25 -145 35 -53 74 -88 129 -116 37 -19 59
-23 131 -22 129 1 153 16 326 203 80 85 169 175 198 200 51 43 63 48 192 77
213 50 516 88 638 81 59 -3 60 -4 79 -43 13 -27 22 -77 28 -155 18 -242 24
-267 91 -388 34 -60 84 -156 111 -213 176 -373 372 -758 536 -1054 58 -105
241 -389 309 -482 13 -17 20 -36 16 -43 -9 -14 -453 -7 -639 10 -178 17 -314
70 -421 164 -53 47 -67 67 -88 123 -51 135 -59 175 -64 323 -2 80 -8 154 -13
165 -5 11 -11 49 -13 85 -16 229 -85 344 -203 342 -36 0 -52 -6 -75 -28 -64
-61 -99 -160 -99 -281 0 -23 -4 -43 -10 -45 -5 -1 -109 1 -231 5 -183 7 -233
6 -296 -7 -87 -18 -162 -59 -225 -124 -40 -40 -43 -47 -42 -94 0 -47 4 -55 41
-88 53 -47 156 -80 246 -80 37 0 67 -2 67 -5 0 -3 -9 -23 -20 -45 -25 -50 -27
-145 -4 -171 13 -15 14 -24 5 -50 -51 -148 66 -318 256 -374 155 -45 397 -17
436 51 13 23 39 16 112 -29 119 -74 256 -118 427 -136 188 -21 688 -9 868 21
105 17 221 16 231 -2 27 -45 173 -363 249 -540 49 -113 99 -230 113 -260 53
-118 89 -196 101 -220 8 -14 42 -81 76 -150 72 -143 210 -396 247 -454 l25
-39 -85 -171 c-47 -94 -94 -191 -105 -216 -54 -129 -322 -575 -448 -746 -56
-76 -231 -276 -247 -283 -5 -2 -39 5 -76 15 -52 15 -100 19 -227 19 l-160 0
-77 -38 c-62 -31 -91 -54 -154 -123 -43 -46 -81 -94 -86 -106 -10 -28 17 -109
49 -147 13 -16 24 -34 24 -39 0 -21 100 -113 181 -165 142 -92 398 -167 571
-167 93 0 128 10 128 37 0 8 15 36 34 62 58 79 149 220 236 366 46 77 139 232
208 345 261 427 309 512 436 760 l131 254 60 36 c76 44 153 105 196 156 19 21
61 69 94 105 33 37 88 105 121 152 l61 86 61 -56 c66 -59 113 -119 155 -198
55 -103 74 -178 113 -430 32 -206 35 -266 39 -939 4 -508 8 -693 17 -703 19
-24 78 -49 168 -74 74 -20 108 -23 265 -24 184 0 221 6 322 51 17 8 34 14 37
14 19 0 100 62 117 89 30 49 26 129 -11 206 -59 123 -157 166 -411 180 l-117
7 -6 126 c-11 215 -27 410 -48 567 -11 83 -23 195 -28 250 -5 55 -14 129 -19
165 -6 36 -15 108 -20 160 -18 162 -30 228 -83 440 -81 325 -170 538 -269 642
-21 23 -39 46 -39 52 1 16 32 52 56 64 39 20 109 84 143 131 54 73 115 212
180 405 33 99 65 184 70 189 6 6 18 3 32 -7 26 -18 91 -21 119 -6 32 17 68 90
120 241 27 78 52 144 55 147 2 3 31 -1 62 -8 32 -7 92 -18 133 -25 41 -7 118
-20 170 -30 167 -29 249 -34 540 -34 313 0 442 11 665 57 28 6 52 4 80 -6 22
-8 88 -17 147 -19 84 -4 118 -2 165 12 166 52 250 120 297 243 36 95 43 155
22 188 -14 20 -16 37 -11 75 8 58 -6 107 -40 139 -14 13 -25 27 -25 31 0 4 20
17 45 29 67 32 105 81 105 135 0 73 -56 122 -213 188 -65 27 -85 30 -214 35
l-143 5 0 119 c0 157 -20 198 -99 198 -116 0 -253 -116 -337 -285 -27 -55 -60
-125 -73 -155 -13 -30 -62 -133 -108 -228 -75 -156 -90 -179 -151 -240 -50
-51 -93 -81 -172 -122 l-105 -55 -205 0 c-119 0 -243 6 -295 13 -137 21 -138
21 -132 40 3 9 21 64 41 122 19 58 51 155 70 215 39 126 153 455 159 461 2 3
16 0 31 -6 35 -13 91 -13 138 0 42 12 92 65 125 132 40 79 105 383 90 420 -4
12 19 18 116 31 215 28 270 43 387 105 138 73 178 114 258 264 56 106 104 239
140 388 58 236 62 272 62 511 0 254 -13 350 -57 407 l-26 34 -106 -5 c-58 -4
-155 -10 -216 -16 -60 -5 -112 -8 -116 -6 -3 3 -3 24 1 47 5 24 14 132 20 240
15 242 7 398 -25 494 l-23 69 33 45 c93 129 202 345 240 480 15 52 36 124 47
160 48 161 71 418 47 535 -14 69 -47 141 -78 169 -54 49 -61 49 -1051 52 -509
1 -961 -2 -1005 -6z m-3546 -513 c29 -18 96 -77 148 -132 168 -177 188 -236
187 -540 l0 -200 -52 -200 c-45 -176 -55 -203 -82 -228 -50 -47 -78 -51 -161
-26 -40 12 -82 32 -93 44 -12 12 -45 30 -74 40 -30 9 -69 30 -87 46 -23 20
-43 29 -68 29 -28 0 -42 8 -69 38 -106 117 -184 273 -235 467 -25 97 -25 329
0 398 69 191 176 284 347 298 121 11 178 3 239 -34z m4661 -711 c259 -34 351
-63 485 -150 61 -40 90 -66 109 -99 56 -95 70 -302 41 -602 -22 -219 -17 -207
-95 -221 -102 -19 -245 -36 -375 -45 -66 -5 -178 -16 -250 -24 -71 -8 -227
-19 -345 -25 -118 -5 -271 -14 -340 -19 -69 -6 -183 -13 -255 -16 -71 -3 -175
-10 -230 -15 -225 -22 -460 -34 -825 -40 -342 -6 -632 -17 -945 -35 l-100 -5
-45 66 c-115 170 -316 284 -648 366 -121 30 -136 32 -322 32 -138 -1 -214 -5
-260 -16 -36 -8 -68 -13 -72 -11 -5 2 -8 35 -8 73 0 67 6 82 38 86 22 4 40 24
47 53 7 33 24 50 115 113 238 166 464 215 785 169 147 -21 283 -81 366 -161
36 -34 42 -36 59 -15 27 33 -30 96 -142 155 l-62 33 40 33 c83 71 238 134 376
155 92 14 389 -2 489 -26 35 -8 87 -20 114 -26 28 -6 82 -25 122 -41 72 -29
113 -33 120 -11 2 6 -5 20 -16 30 -24 23 -137 70 -195 83 -23 5 -57 13 -76 18
l-35 8 46 21 c95 43 175 56 301 50 65 -3 134 -10 155 -16 21 -6 78 -20 128
-32 123 -29 230 -66 297 -101 52 -28 88 -55 288 -216 68 -55 103 -64 108 -27
2 16 -23 42 -100 106 -164 135 -190 155 -247 187 l-54 30 29 15 c65 33 152 50
231 44 224 -17 303 -43 523 -172 154 -91 252 -145 263 -145 38 0 -209 198
-312 250 -37 18 -41 24 -30 35 28 28 165 96 219 110 69 18 325 13 490 -9z
m-4792 -612 c42 -20 106 -45 142 -56 116 -35 106 -22 113 -145 7 -115 20 -165
80 -293 39 -83 127 -298 127 -310 0 -4 -24 -10 -52 -13 -29 -3 -96 -11 -148
-17 -52 -6 -104 -12 -114 -13 -16 -2 -21 8 -31 58 -13 65 -46 148 -106 266
-37 71 -69 185 -98 345 -14 78 -15 214 0 214 6 0 45 -16 87 -36z m5140 -567
c8 -9 -1 -28 -34 -72 -67 -90 -121 -203 -128 -271 -9 -82 12 -154 90 -308 l66
-130 -6 -65 c-9 -87 -35 -164 -95 -276 -56 -107 -200 -311 -259 -369 -40 -38
-40 -38 -89 -27 -26 6 -69 15 -95 21 -79 17 -142 31 -156 36 -9 2 14 34 62 87
102 110 130 167 131 266 l0 76 -64 100 c-45 71 -102 139 -197 235 -142 145
-173 193 -174 268 0 53 49 176 101 254 21 31 45 73 53 92 13 32 19 36 53 37
88 2 536 41 598 53 50 9 133 5 143 -7z m-1740 -129 c-8 -7 -31 -38 -50 -68
-134 -211 -170 -272 -195 -325 -28 -60 -28 -61 -27 -255 1 -167 4 -208 24
-285 33 -130 37 -246 11 -332 -22 -73 -72 -165 -124 -226 -29 -35 -38 -39
-102 -47 -94 -12 -315 -13 -315 -1 0 6 4 12 9 16 20 11 72 121 88 184 10 37
18 104 18 151 l0 85 -167 209 c-182 227 -191 243 -192 361 -1 54 5 83 24 125
29 66 182 273 231 314 19 16 41 43 49 60 l15 31 255 5 c140 3 302 7 359 8 85
2 102 0 89 -10z m-2705 -720 c32 -103 49 -184 60 -306 11 -124 6 -197 -33
-432 -5 -30 -9 -106 -9 -169 -1 -99 2 -120 21 -159 28 -54 96 -117 163 -148
60 -29 158 -33 193 -8 35 24 61 86 72 171 5 43 14 96 18 118 9 40 9 40 20 14
32 -79 45 -218 53 -584 4 -203 10 -382 14 -398 18 -70 96 -85 191 -37 32 16
60 30 61 30 1 0 11 -16 23 -35 38 -62 84 -85 167 -85 62 0 76 3 101 25 l30 25
5 -63 c9 -106 43 -287 75 -402 81 -285 173 -472 391 -799 130 -195 151 -234
151 -288 0 -53 44 -181 80 -233 33 -48 76 -88 148 -139 79 -57 82 -64 82 -189
0 -96 3 -115 25 -158 l24 -50 -38 -63 c-21 -34 -111 -206 -199 -382 -89 -175
-210 -400 -270 -499 -60 -99 -186 -308 -280 -465 -177 -296 -391 -630 -403
-630 -4 0 -25 33 -47 73 -47 85 -166 225 -243 284 -64 49 -194 118 -263 138
-27 8 -83 15 -123 15 -40 0 -73 3 -73 8 0 13 70 63 125 88 49 23 67 25 192 25
111 0 152 -4 207 -20 38 -11 74 -25 80 -31 5 -5 23 -10 38 -10 22 0 28 5 28
23 0 13 33 58 86 117 158 175 275 345 455 660 67 118 144 262 170 320 26 58
77 163 113 233 67 131 78 171 51 191 -27 21 -337 607 -415 786 -18 41 -43 98
-55 125 -13 28 -55 124 -94 215 -77 182 -237 524 -261 560 -15 22 -18 22 -85
11 -310 -49 -764 -69 -1015 -45 -190 19 -283 50 -467 155 -49 28 -53 33 -53
68 0 60 -56 133 -134 173 l-28 15 48 24 c58 28 66 56 36 116 -41 79 -134 144
-269 188 -46 14 -85 31 -88 36 -9 13 -148 11 -182 -2 -49 -21 -220 -17 -287 6
-70 24 -116 63 -116 98 0 47 122 134 220 157 53 13 388 9 546 -5 79 -8 94 3
64 45 -57 80 17 320 99 320 26 0 77 -44 98 -84 23 -44 42 -156 42 -254 1 -46
6 -92 11 -103 6 -11 13 -61 16 -112 6 -135 12 -172 45 -273 53 -164 112 -229
274 -302 143 -64 216 -79 410 -86 88 -3 198 -11 245 -17 63 -8 110 -7 182 1
54 7 114 9 133 6 78 -15 99 26 45 87 -16 19 -33 43 -37 53 -5 11 -65 105 -134
209 -160 241 -309 514 -535 975 -199 405 -273 553 -307 613 -32 53 -35 68 -46
195 -6 75 -16 166 -21 202 -5 36 -11 74 -12 85 -3 17 4 21 47 26 28 3 113 7
190 7 l141 2 17 -52z m3203 -335 c32 -49 128 -144 184 -183 89 -60 250 -130
370 -160 194 -49 256 -58 401 -59 l116 -1 -4 -57 c-4 -57 -33 -204 -53 -273
-17 -59 -52 -120 -87 -151 -46 -40 -118 -42 -153 -4 -13 14 -32 25 -42 25 -18
0 -22 -6 -48 -77 -12 -31 -16 -33 -58 -33 -55 0 -226 -57 -336 -111 -199 -100
-357 -250 -466 -443 -32 -58 -78 -202 -92 -291 -24 -154 -12 -389 28 -545 l15
-61 -52 -47 c-71 -64 -128 -101 -168 -108 -30 -6 -38 -3 -63 25 -15 17 -33 51
-39 76 -19 77 -59 87 -78 19 -14 -52 -47 -84 -88 -84 -23 0 -37 7 -47 23 -20
32 -28 107 -17 157 12 53 6 70 -25 70 -34 0 -44 -28 -44 -119 0 -89 23 -158
61 -185 37 -26 98 -20 152 14 26 16 47 26 47 21 0 -4 16 -24 35 -44 33 -34 41
-37 91 -37 35 0 69 7 93 20 48 24 151 117 151 136 0 27 16 13 50 -42 18 -31
44 -63 56 -71 l22 -14 -18 -52 c-31 -89 -74 -189 -110 -257 -41 -76 -127 -164
-175 -180 -30 -10 -42 -25 -92 -118 l-58 -107 -5 47 c-7 57 -23 77 -48 62 -15
-10 -18 -34 -22 -171 l-5 -160 -42 -84 c-41 -84 -152 -239 -236 -334 l-45 -50
-22 20 c-13 11 -39 44 -58 74 -33 52 -34 57 -41 185 -5 91 -11 138 -22 153 -8
11 -51 48 -96 82 -129 95 -169 165 -193 338 -12 87 -12 95 8 141 72 166 83
228 89 493 6 253 -3 336 -48 459 -22 59 -72 153 -97 183 -15 17 -14 18 24 12
60 -9 124 14 152 55 31 46 16 57 -43 31 -58 -25 -102 -27 -135 -4 -56 39 -87
91 -104 177 -11 54 -16 61 -38 64 -16 2 -28 -3 -32 -13 -7 -20 18 -134 39
-175 8 -16 15 -31 15 -34 0 -2 -27 6 -59 19 -72 28 -187 51 -299 60 -45 4 -85
11 -88 17 -3 5 -10 102 -15 215 -6 159 -12 211 -24 229 -18 28 -37 30 -60 7
-18 -18 -18 -11 4 -188 19 -145 -8 -204 -95 -212 -65 -6 -103 19 -138 88 -20
42 -26 67 -26 121 0 38 -5 77 -12 87 -18 29 5 131 49 221 29 60 38 89 41 149
3 55 1 76 -9 82 -34 21 -51 0 -54 -67 -2 -46 -12 -79 -46 -149 l-44 -90 -1
-155 c-1 -85 -2 -161 -3 -168 -2 -21 -64 -52 -103 -52 -29 0 -38 5 -44 23 -4
12 -8 157 -9 322 -2 389 -21 569 -80 734 -8 24 -15 53 -15 64 0 11 -8 29 -17
39 -15 17 -15 20 -3 28 8 6 23 10 32 10 63 0 258 126 324 208 27 33 54 61 61
61 6 1 60 -41 120 -91 60 -51 134 -112 164 -135 97 -74 307 -165 484 -209 33
-9 76 -20 95 -26 20 -6 134 -11 262 -12 124 0 230 -4 234 -8 14 -15 41 -8 63
16 12 13 36 27 53 30 45 9 280 129 373 191 83 56 277 219 355 299 24 25 47 46
51 46 4 0 15 -12 25 -27z m-2984 -355 c26 -5 88 -11 138 -11 l91 -2 -6 -70
c-4 -38 -10 -92 -15 -120 -4 -27 -13 -84 -20 -125 -6 -41 -17 -91 -24 -110
-11 -34 -14 -35 -66 -38 -73 -4 -90 1 -150 49 -91 72 -109 150 -81 351 l14 96
36 -5 c20 -2 57 -9 83 -15z m5055 -426 c22 -14 33 -63 33 -145 0 -106 -6 -127
-35 -127 -45 0 -57 -52 -14 -63 11 -3 19 -14 19 -25 0 -30 32 -37 52 -12 10
12 18 28 18 36 0 11 25 14 128 14 137 0 184 -10 287 -63 115 -58 136 -117 60
-168 -70 -48 -123 -57 -365 -67 -253 -9 -269 -14 -320 -84 -40 -55 -42 -123
-5 -158 l25 -23 -44 -47 c-44 -47 -86 -138 -86 -186 0 -31 24 -81 56 -115 l25
-26 -53 -11 c-172 -38 -268 -44 -633 -39 -271 4 -378 9 -435 21 -41 8 -106 20
-145 26 -124 19 -227 44 -232 57 -3 7 7 47 22 88 22 58 32 74 44 70 82 -25
375 -49 525 -43 94 4 122 10 183 35 99 42 201 112 268 185 58 62 140 218 284
537 86 191 160 280 265 320 60 23 58 23 73 13z m453 -697 c63 -32 77 -99 37
-169 -38 -68 -73 -81 -212 -81 -117 0 -160 7 -250 43 -50 20 -131 77 -139 98
-7 19 14 62 49 94 26 24 33 25 203 31 209 7 274 4 312 -16z m-6808 -76 c132
-44 238 -120 238 -171 0 -22 -7 -27 -67 -44 -53 -15 -101 -19 -219 -19 l-151
0 -69 35 c-69 35 -69 36 -68 76 1 56 36 110 87 134 35 17 55 20 114 15 40 -3
100 -15 135 -26z m6380 -193 c83 -31 230 -50 323 -42 72 7 152 38 162 62 9 24
23 15 23 -13 0 -42 -46 -154 -81 -196 -33 -40 -108 -83 -197 -112 -40 -13 -78
-16 -155 -13 -115 3 -170 23 -239 86 -33 30 -38 40 -38 79 0 74 79 192 119
179 9 -2 46 -16 83 -30z m-6625 -87 c39 -18 78 -23 218 -29 94 -4 187 -13 209
-20 44 -13 126 -90 126 -119 0 -26 -26 -85 -44 -100 -27 -22 -119 -41 -205
-41 -81 0 -101 4 -198 37 -89 30 -161 106 -184 194 -11 41 -10 50 4 73 10 14
19 26 21 26 3 0 26 -10 53 -21z m4140 -1501 c49 -60 91 -144 146 -293 51 -137
141 -489 157 -615 16 -125 39 -321 50 -435 6 -55 17 -145 25 -200 23 -157 55
-569 55 -708 0 -49 5 -97 10 -108 13 -23 36 -25 48 -2 8 14 24 15 125 10 246
-14 334 -60 372 -191 30 -102 -11 -147 -185 -205 -88 -29 -103 -31 -241 -31
-152 0 -249 15 -346 55 l-42 17 -4 651 c-4 611 -10 769 -36 922 -6 33 -18 107
-27 165 -39 253 -136 449 -277 561 -28 23 -51 47 -50 53 1 6 12 38 24 71 12
33 25 88 29 123 7 52 14 69 44 102 19 22 42 56 51 76 8 20 19 34 24 32 5 -1
26 -24 48 -50z m-635 -695 c15 -15 28 -32 28 -39 0 -12 -108 -104 -122 -104
-4 0 1 20 12 45 10 24 24 63 30 85 6 22 14 40 17 40 4 0 20 -12 35 -27z
m-1772 -1551 c114 -45 197 -102 290 -199 85 -89 153 -186 166 -238 6 -24 5
-25 -47 -25 -142 1 -392 77 -506 154 -83 56 -153 123 -153 147 0 10 -11 26
-24 36 -36 29 -59 79 -46 103 34 63 189 74 320 22z"/>
<path d="M5495 8144 c-16 -3 -55 -17 -85 -32 -48 -24 -59 -34 -84 -87 -22 -45
-31 -80 -36 -138 -7 -99 -1 -106 78 -87 31 7 119 15 195 17 154 5 214 -5 352
-59 104 -41 155 -69 241 -134 77 -59 104 -62 104 -14 0 67 -99 227 -207 333
-95 94 -165 138 -282 178 -56 19 -215 32 -276 23z"/>
<path d="M4515 7924 c-49 -31 -113 -68 -142 -81 -78 -36 -218 -72 -304 -79
-98 -9 -323 12 -417 38 -81 22 -102 19 -102 -12 0 -14 11 -26 34 -35 37 -16
46 -31 46 -78 0 -45 50 -127 107 -176 119 -102 236 -130 458 -111 80 7 141 18
170 30 116 50 242 165 289 264 37 78 35 196 -4 276 -14 29 -46 20 -135 -36z"/>
<path d="M4639 5613 c-8 -10 -21 -30 -29 -45 -21 -43 -138 -151 -207 -191 -64
-37 -149 -67 -189 -67 -31 0 -41 -20 -19 -37 26 -18 117 -16 160 4 l35 17 98
-49 c53 -27 102 -54 107 -61 6 -7 26 -13 45 -13 19 0 76 -3 125 -7 136 -10
392 24 485 63 161 69 260 142 260 194 0 32 -3 33 -85 29 -60 -2 -93 -9 -250
-49 -175 -45 -357 -42 -510 6 -27 8 -54 19 -59 23 -4 5 5 26 22 47 16 21 40
57 52 80 19 35 21 45 10 58 -16 20 -34 19 -51 -2z m-49 -243 c22 -11 40 -23
40 -27 0 -6 -22 -73 -26 -81 -2 -4 -135 56 -143 64 -8 7 60 63 77 64 7 0 31
-9 52 -20z m808 8 c-7 -19 -151 -89 -161 -79 -5 5 -7 19 -5 32 3 20 13 26 73
40 88 21 98 22 93 7z m-538 -67 l95 -6 -3 -35 c-2 -19 -5 -37 -7 -38 -2 -2
-39 -6 -83 -9 -96 -7 -191 4 -198 22 -3 7 2 29 10 50 15 36 17 37 53 30 21 -4
81 -11 133 -14z m308 -13 c-3 -32 -4 -33 -81 -49 -42 -8 -79 -14 -81 -12 -2 2
0 18 3 36 6 29 11 32 66 43 97 18 97 18 93 -18z"/>
<path d="M3626 5321 c-24 -46 -22 -200 4 -250 35 -69 116 -89 198 -49 71 36
162 147 149 182 -12 30 -45 17 -81 -33 -38 -52 -117 -111 -147 -111 -10 0 -31
11 -46 24 -28 24 -28 25 -28 142 0 104 -2 119 -17 122 -11 2 -23 -8 -32 -27z"/>
<path d="M3957 5114 c-11 -12 -8 -103 5 -148 7 -24 30 -59 55 -83 38 -38 48
-43 89 -43 42 0 51 5 84 39 56 59 79 115 71 176 -4 38 -11 51 -25 53 -28 6
-39 -13 -39 -62 1 -63 -44 -136 -85 -136 -53 0 -88 49 -99 142 -7 53 -11 63
-28 66 -12 2 -24 0 -28 -4z"/>
</g>
</svg>
